<?xml version="1.0" encoding="UTF-8"?>
<svg id="Layer_1" xmlns="http://www.w3.org/2000/svg" version="1.1" viewBox="0 0 800 300">
  <!-- Generator: Adobe Illustrator 29.8.3, SVG Export Plug-In . SVG Version: 2.1.1 Build 3)  -->
  <defs>
    <style>
      .st0, .st1 {
        fill: #001e45;
      }

      .st1 {
        fill-rule: evenodd;
      }

      .st2 {
        fill: #6f1931;
      }
    </style>
  </defs>
  <g>
    <path class="st2" d="M293.6,187.5h-29.8c-1.1-1.2-2.4-3-4.1-5.2-1.6-2.3-3.4-5-5.3-8.1-1.9-3.1-3.5-5.6-4.8-7.7l-7.5-12.5c-3.4-5.6-5.9-9.4-7.7-11.4-1.7-2-3.7-3.4-5.9-3.9-2.2-.6-6-.9-11.3-.9h-4.2v29c0,3.1.3,5.5,1,7.4.7,1.9,2.2,3.3,4.6,4.3,2.4,1,6,1.5,10.6,1.5v7.5h-55.7v-7.5c6.8,0,11.1-1,13.1-3,1.9-2,2.9-5.4,2.9-10.2v-70.2c0-4.8-.9-8.1-2.8-10.1-1.9-2-6.3-3-13.2-3v-7.7l25.7-.8c2-.1,4.2-.2,6.8-.2,2.5,0,4.9,0,7.1,0s4.5,0,8.4.2c5.5.2,10.7.5,15.5,1,4.8.5,8.6,1.1,11.4,1.9,4.1,1,8,2.8,11.7,5.2,3.7,2.4,6.7,5.6,9,9.5,2.3,3.9,3.5,8.5,3.5,13.7s-.8,7.3-2.4,10.8c-1.6,3.5-4.2,6.6-7.8,9.3-3.6,2.7-8.3,4.9-14.1,6.5,4,2.4,7.4,5.3,10.2,8.7,2.8,3.5,7.2,9.9,13.1,19.1,3.4,5.3,6.3,9.3,8.5,12,2.2,2.7,4.3,4.5,6.2,5.5,1.9,1,4.3,1.6,7.2,1.8v7.5ZM247.5,106c0-8.9-2.7-14.7-8.1-17.6-5.4-2.9-12.4-4.3-21.1-4.3s-2.1,0-2.8,0c-.7,0-1.5,0-2.3,0v44.7h5.2c8.3,0,15.2-1.3,20.8-4,5.6-2.7,8.4-8.9,8.4-18.8Z"/>
    <path class="st2" d="M411.3,132c0,10.1-2.4,19.6-7.2,28.4-4.8,8.8-11.9,15.9-21.4,21.2-9.4,5.3-20.6,8-33.4,8s-19.7-1.7-27.7-5.1c-8-3.4-14.5-7.9-19.6-13.6-5.1-5.7-8.8-11.9-11.2-18.7-2.4-6.8-3.6-13.6-3.6-20.4,0-9.9,2.3-19.2,7-28,4.6-8.8,11.6-15.9,21-21.3,9.3-5.4,20.5-8.1,33.5-8.1s21.9,1.9,30.2,5.8c8.3,3.9,14.8,8.8,19.4,14.7,4.6,5.9,8,12.1,10,18.6s3,12.6,3,18.5ZM384.7,131.6c0-6.2-.5-12.1-1.6-17.7-1.1-5.6-2.9-10.6-5.6-15.1s-6.3-8.1-11-10.7c-4.6-2.7-10.4-4-17.2-4s-16.7,2.3-22,7c-5.3,4.7-8.9,10.5-10.7,17.5-1.9,7-2.8,14.7-2.8,23s.3,9.4.9,14.3c.6,5,2,10.1,4.3,15.3,2.3,5.2,6,9.6,11,13.2,5,3.6,11.5,5.4,19.5,5.4s14.4-1.8,19.3-5.5c4.9-3.7,8.6-8.2,10.8-13.5,2.3-5.3,3.7-10.4,4.3-15.3.6-4.9.9-9.5.9-13.9Z"/>
    <path class="st2" d="M543.9,187.5h-54.7v-7.5c4.5,0,7.9-.5,10.2-1.5s3.8-2.4,4.4-4.3,1-4.3,1-7.4v-33.4h-51.6v33.4c0,4.6,1,7.9,2.9,10,1.9,2.1,6.3,3.1,13.1,3.1v7.5h-55.1v-7.5c4.4,0,7.8-.5,10.1-1.5,2.3-1,3.8-2.4,4.5-4.2.7-1.8,1-4.3,1-7.4v-69.8c0-3.1-.3-5.6-1-7.3-.7-1.8-2.1-3.2-4.3-4.2-2.2-1-5.7-1.6-10.3-1.6v-7.5h55.1v7.5c-6.8,0-11.1,1-13.1,3-1.9,2-2.9,5.4-2.9,10.1v27.4h51.6v-27.4c0-3.1-.3-5.6-.9-7.3-.6-1.8-2-3.2-4.3-4.2-2.2-1-5.7-1.6-10.4-1.6v-7.5h54.7v7.5c-4.6,0-8.1.5-10.3,1.6-2.2,1-3.7,2.4-4.3,4.2-.6,1.8-.9,4.2-.9,7.3v69.8c0,3,.3,5.4.9,7.2.6,1.8,2,3.2,4.3,4.3,2.3,1.1,5.8,1.6,10.4,1.6v7.5Z"/>
    <path class="st2" d="M662.1,187.5h-52.4v-7.5c4.4,0,7.6-.3,9.7-.9,2-.6,3-2.1,3-4.5s-.3-3.3-1-5l-5.2-13.1h-36.1l-2.7,7.2c-1.5,4-2.3,7-2.3,8.8,0,3.3,1.3,5.4,3.8,6.2,2.5.9,5.5,1.3,8.9,1.3v7.5h-38.3v-7.5c3.1,0,5.7-.6,7.8-1.7,2.1-1.1,4.2-3.3,6.1-6.5,1.9-3.2,4-7.7,6.3-13.6l32.1-83.9h7.8l33.9,86.6c2.5,6.1,4.3,10.3,5.4,12.4,1.1,2.2,2.7,3.8,4.8,5,2,1.2,4.9,1.8,8.5,1.8v7.5ZM613.3,148.4l-15.3-38.8-14.6,38.8h29.9Z"/>
    <path class="st2" d="M788.5,83.9c-5.3,0-9.1.5-11.4,1.6-2.3,1.1-3.7,2.6-4.3,4.7-.5,2.1-.8,5.5-.8,10.2v88.1h-7.5l-72.7-86.4v61.2c0,4.6.3,8,.9,10.1.6,2.1,2,3.7,4.4,4.8,2.3,1.1,6.1,1.7,11.4,1.7v7.5h-41.3v-7.5c4.9,0,8.5-.6,10.7-1.7,2.2-1.1,3.6-2.7,4.1-4.8.5-2.1.8-5.5.8-10.1v-56.7c0-4.6-.1-8-.4-10.3s-.8-4.3-1.8-6c-.9-1.7-2.4-3.1-4.5-4.2-2.1-1.1-5-1.8-8.7-2.2v-7.5h32.4l63.3,74.8v-50.7c0-4.2-.3-7.3-.9-9.6-.6-2.2-2-3.9-4.3-5.1-2.3-1.2-5.9-1.8-10.8-1.8v-7.5h41.5v7.5Z"/>
  </g>
  <g>
    <path class="st0" d="M224.8,244.5l-.4,18.4h-49.2v-3.7c3.4,0,5.6-.5,6.6-1.5,1-1,1.5-2.7,1.5-5v-34.7c0-1.6-.2-2.8-.5-3.7-.3-.9-1.1-1.6-2.3-2.1-1.2-.5-2.9-.7-5.3-.7v-3.7h27.8v3.7c-2.3,0-4,.2-5.2.7-1.2.5-2,1.1-2.3,2-.4.9-.5,2.2-.5,3.8v31.7c0,2.5.1,4.3.4,5.4.2,1.1.9,1.9,2,2.5,1.1.6,2.9.8,5.3.8s5.9-.2,8.2-.7c2.3-.5,4.5-1.7,6.5-3.8,2-2,3.2-5.2,3.7-9.4h3.7Z"/>
    <path class="st0" d="M287.5,263h-26v-3.7c2.2,0,3.8-.2,4.8-.5,1-.3,1.5-1.1,1.5-2.2s-.2-1.6-.5-2.5l-2.6-6.5h-17.9l-1.3,3.6c-.8,2-1.1,3.5-1.1,4.4,0,1.6.6,2.7,1.9,3.1,1.3.4,2.7.7,4.4.7v3.7h-19v-3.7c1.5,0,2.8-.3,3.9-.9,1.1-.6,2.1-1.6,3-3.2,1-1.6,2-3.8,3.1-6.7l15.9-41.7h3.9l16.8,43c1.2,3,2.1,5.1,2.7,6.2s1.4,1.9,2.4,2.5c1,.6,2.4.9,4.2.9v3.7ZM263.3,243.5l-7.6-19.2-7.2,19.2h14.9Z"/>
    <path class="st0" d="M361.2,211.5c-2,.2-3.4.5-4.3,1-.9.5-1.6,1.3-2.2,2.5-.5,1.2-1.2,3.4-2.1,6.5l-11.5,42.4h-5.7l-14.1-39.7-13.2,39.7h-5.6l-12.8-43.6c-.8-2.6-1.5-4.5-2.1-5.8-.6-1.2-1.4-2.1-2.2-2.5-.9-.4-2.1-.6-3.6-.6v-3.7h23.9v3.7c-1.9,0-3.2.1-4.1.4-.9.3-1.3,1.1-1.3,2.4s.3,2.3.9,4.4l8.1,27.5,12.9-38.6h5.3l13.7,38.6,6.9-25.9c.5-1.8.7-3.2.7-4.3,0-2-.6-3.2-1.9-3.8-1.2-.5-2.8-.8-4.7-.9v-3.7h18.9v3.7Z"/>
    <path class="st0" d="M451.3,241.2c-1.6.2-2.8.4-3.6.8-.8.3-1.3.9-1.6,1.7-.3.8-.4,2.1-.4,3.8v12.9c-3.9,0-8.2.5-12.8,1.5-3.3.7-5.8,1.2-7.4,1.5-1.7.3-3.6.4-5.9.4-6,0-11.1-1.4-15.3-4.2-4.3-2.8-7.5-6.4-9.6-10.8-2.1-4.4-3.2-8.9-3.2-13.6s1.3-10.2,3.8-14.5c2.5-4.4,5.9-7.8,10.3-10.3,4.3-2.5,9-3.8,14.2-3.8s11.9,2.2,17,6.5c.6-1.2,1.1-2.8,1.5-4.8h3.9l.4,18.1h-3.7c-.6-2.7-1.6-5.2-3.2-7.5s-3.5-4.1-5.9-5.4c-2.3-1.3-4.9-2-7.8-2s-4.1.4-6.1,1.1c-2,.7-3.8,2-5.6,3.7-1.7,1.8-3.1,4.2-4.2,7.3-1,3.1-1.6,6.9-1.6,11.4s.4,7.6,1.2,11.1c.8,3.6,2.5,6.6,5,9.2,2.5,2.6,6,3.8,10.6,3.8s6.3-.6,8.1-1.7c1.8-1.1,3-2.5,3.6-4.1s.8-3.4.8-5.5-.1-3.3-.4-4.2c-.3-.9-1-1.5-2-1.9s-2.7-.6-4.8-.6v-3.7h24.6v3.7Z"/>
    <path class="st0" d="M515.4,263h-14.8c-.5-.6-1.2-1.5-2-2.6s-1.7-2.5-2.6-4c-1-1.5-1.7-2.8-2.4-3.8l-3.7-6.2c-1.7-2.8-3-4.7-3.8-5.7s-1.8-1.7-2.9-2-3-.4-5.6-.4h-2.1v14.4c0,1.5.2,2.7.5,3.7.3.9,1.1,1.6,2.3,2.1,1.2.5,3,.7,5.3.7v3.7h-27.7v-3.7c3.4,0,5.5-.5,6.5-1.5,1-1,1.4-2.7,1.4-5v-34.8c0-2.4-.5-4-1.4-5-.9-1-3.1-1.5-6.5-1.5v-3.8l12.8-.4c1,0,2.1,0,3.4-.1,1.3,0,2.4,0,3.5,0s2.2,0,4.2,0c2.7,0,5.3.2,7.7.5,2.4.2,4.3.6,5.7.9,2,.5,4,1.4,5.8,2.6,1.8,1.2,3.3,2.8,4.5,4.7,1.2,2,1.7,4.2,1.7,6.8s-.4,3.6-1.2,5.4c-.8,1.7-2.1,3.3-3.9,4.6-1.8,1.4-4.1,2.4-7,3.2,2,1.2,3.7,2.6,5,4.3s3.6,4.9,6.5,9.5c1.7,2.6,3.1,4.6,4.2,6s2.1,2.3,3.1,2.7c.9.5,2.1.8,3.6.9v3.7ZM492.5,222.5c0-4.4-1.3-7.3-4-8.7-2.7-1.4-6.2-2.2-10.5-2.2s-1.1,0-1.4,0c-.3,0-.7,0-1.2,0v22.2h2.6c4.1,0,7.5-.7,10.3-2s4.2-4.4,4.2-9.3Z"/>
    <path class="st0" d="M579.1,235.4c0,5-1.2,9.7-3.6,14.1-2.4,4.4-5.9,7.9-10.6,10.5-4.7,2.6-10.2,4-16.6,4s-9.8-.8-13.8-2.5c-4-1.7-7.2-3.9-9.7-6.8-2.5-2.8-4.4-5.9-5.6-9.3-1.2-3.4-1.8-6.7-1.8-10.1,0-4.9,1.2-9.5,3.5-13.9,2.3-4.4,5.8-7.9,10.4-10.6,4.6-2.7,10.2-4,16.6-4s10.9,1,15,2.9c4.1,1.9,7.3,4.4,9.6,7.3,2.3,2.9,4,6,4.9,9.2,1,3.2,1.5,6.3,1.5,9.2ZM566,235.2c0-3.1-.3-6-.8-8.8-.5-2.8-1.5-5.3-2.8-7.5-1.3-2.2-3.1-4-5.5-5.3-2.3-1.3-5.2-2-8.5-2s-8.3,1.2-10.9,3.5c-2.6,2.3-4.4,5.2-5.3,8.7-.9,3.5-1.4,7.3-1.4,11.4s.1,4.7.4,7.1c.3,2.5,1,5,2.2,7.6,1.1,2.6,3,4.8,5.5,6.6,2.5,1.8,5.7,2.7,9.7,2.7s7.1-.9,9.6-2.7,4.2-4.1,5.4-6.7c1.1-2.6,1.8-5.2,2.1-7.6s.4-4.7.4-6.9Z"/>
    <path class="st0" d="M644.6,211.5c-2.5,0-4.2.3-5.3.9-1.1.6-1.7,1.4-2,2.4s-.4,2.7-.4,4.9v20.3c0,3.7-.1,6.6-.4,8.4s-.9,3.8-2.1,5.7c-2.1,3.7-4.9,6.3-8.6,7.7-3.7,1.4-7.3,2.1-10.7,2.1s-5.1-.3-7.8-1c-2.7-.7-5.2-1.8-7.5-3.3-2.3-1.5-4.1-3.5-5.2-6-.7-1.4-1.2-2.7-1.5-4.1-.4-1.4-.6-2.7-.6-3.9s-.1-2.8-.1-4.7v-23c0-2.4-.5-4.1-1.5-5-.9-1-3.1-1.5-6.6-1.5v-3.7h27.8v3.7c-2.4,0-4.1.2-5.3.7-1.2.5-1.9,1.2-2.3,2-.4.9-.5,2.1-.5,3.8v23c0,2.4.1,4.4.3,6.2.2,1.8.6,3.3,1.1,4.7.9,2.2,2.5,4,4.7,5.3s4.6,2,7.3,2,5.5-.7,8-2.1,4.2-3.2,5.1-5.4c.8-1.7,1.3-3.5,1.5-5.4.2-1.9.3-4.1.3-6.7v-19.9c0-1.8,0-3.1-.2-4s-.4-1.6-.9-2.3c-.5-.7-1.3-1.1-2.4-1.4-1.1-.3-2.7-.4-4.7-.4v-3.7h20.3v3.7Z"/>
    <path class="st0" d="M701.2,222.5c0,4.5-1.4,8-4.2,10.3-2.8,2.3-6.1,3.9-9.9,4.5-3.8.7-7.8,1-11.9,1h-3.7v14.4c0,1.6.2,2.9.5,3.8s1.1,1.6,2.3,2c1.2.5,2.9.7,5.3.7v3.7h-27.8v-3.7c2.4,0,4.1-.2,5.2-.7,1.1-.5,1.9-1.2,2.2-2.1.3-.9.5-2.1.5-3.7v-34.8c0-1.6-.2-2.8-.5-3.7-.3-.9-1.1-1.6-2.2-2.1s-2.9-.8-5.2-.8v-3.8l15.7-.4c.8,0,1.7,0,2.7,0,1,0,1.7,0,2.3,0,.6,0,1.4,0,2.5,0s2.4,0,3.1,0c3.2.1,6.3.4,9.3.9s6,1.9,9.1,4.1c3.1,2.3,4.6,5.7,4.6,10.4ZM688.6,222.6c0-4.4-1.3-7.3-3.8-8.8-2.6-1.5-5.9-2.2-10.1-2.2s-1.8,0-3.2,0v22.2h3.7c4,0,7.2-.7,9.7-2.1,2.5-1.4,3.7-4.4,3.7-9.2Z"/>
  </g>
  <g>
    <path class="st0" d="M193.3,31.7h-8.6v27.5h-4.3v-27.5h-8.9v-3.7h22.2l-.5,3.7Z"/>
    <path class="st0" d="M216.1,44.6h-13.1v14.6h-4.3v-31.1h4.3v13h13.1v-13h4.3v31.1h-4.3v-14.6Z"/>
    <path class="st0" d="M245.8,31.5h-12.1v10.2h10.5v3.4h-10.5v10.7h12.9v3.4h-17.2v-31.1h16.9l-.5,3.4Z"/>
  </g>
  <g>
    <path class="st0" d="M740.3,242.5c0,7.1-5.2,10.1-12.1,10.1h-3.9v11.4h-4.3v-31.1h8.2c7.5,0,12.1,3.1,12.1,9.6ZM735.7,242.5c0-4.7-3-6.3-7.6-6.3h-3.8v13h3.8c4.6,0,7.7-1.4,7.7-6.6Z"/>
    <path class="st0" d="M744.8,261.4c0,1.8-1.4,3.2-3.2,3.2s-3.1-1.4-3.1-3.2,1.4-3.1,3.1-3.1,3.2,1.4,3.2,3.1Z"/>
    <path class="st0" d="M770.3,235.4l-2.4,2.8c-1.9-1.6-3.8-2.3-6-2.3-4.7,0-8.6,3.2-8.6,12.6s3.8,12.5,8.6,12.5,4.9-1.3,6.6-2.6l2.1,2.7c-1.7,1.8-4.7,3.5-8.9,3.5-7.5,0-13-5.7-13-16.1s5.9-16.1,12.9-16.1,6.1,1.1,8.6,3.1Z"/>
    <path class="st0" d="M780.1,261.4c0,1.8-1.4,3.2-3.2,3.2s-3.1-1.4-3.1-3.2,1.4-3.1,3.1-3.1,3.2,1.4,3.2,3.1Z"/>
  </g>
  <rect class="st0" x="26.5" y="48.2" width="107.3" height="10.7"/>
  <rect class="st0" x="19.2" y="26.8" width="121.8" height="10.7"/>
  <rect class="st0" x="26.5" y="231.2" width="107.3" height="10.7"/>
  <rect class="st0" x="19.2" y="252.5" width="121.8" height="10.7"/>
  <polygon class="st1" points="42.7 69.5 117.5 69.5 117.5 220.5 106.8 220.5 106.8 80.2 53.4 80.2 53.4 220.5 42.7 220.5 42.7 69.5"/>
  <path class="st0" d="M96.1,90.9h-32v129.6h10.7v-69.2h5.8l4.9,7.1v62h10.7v-63.8l-7.4-10.7,7.4-10.7v-44.4ZM74.8,101.6h10.7v32.1l-4.8,6.9h-5.9v-39.1Z"/>
</svg>